<svg width="80" height="64" viewBox="0 0 80 64" fill="none" xmlns="http://www.w3.org/2000/svg">
<path d="M53 11V2C53 0.895431 52.1046 0 51 0H13.893C13.3247 0 12.7832 0.241768 12.4039 0.664909L0.510861 13.9302C0.181916 14.2971 0 14.7725 0 15.2653V55.7602C0 56.2376 0.170784 56.6992 0.481487 57.0617L5.40136 62.8016C5.78132 63.2449 6.33602 63.5 6.91987 63.5H11C12.1046 63.5 13 62.6046 13 61.5V19.3284C13 18.798 13.2107 18.2893 13.5858 17.9142L17.9142 13.5858C18.2893 13.2107 18.798 13 19.3284 13H51C52.1046 13 53 12.1046 53 11Z" fill="#C778DD"/>
<path d="M53 35V27.5C53 26.3954 52.1046 25.5 51 25.5H28.5C27.3954 25.5 26.5 26.3954 26.5 27.5V43.1867C26.5 43.7082 26.7036 44.209 27.0675 44.5825L44.9112 62.8957C45.2877 63.2821 45.8042 63.5 46.3437 63.5H66.0296C66.6424 63.5 67.2213 63.2191 67.6006 62.7377L79.571 47.5445C79.8489 47.1918 80 46.7558 80 46.3068V2C80 0.89543 79.1046 0 78 0H69C67.8954 0 67 0.89543 67 2V44.1716C67 44.702 66.7893 45.2107 66.4142 45.5858L61.5858 50.4142C61.2107 50.7893 60.702 51 60.1716 51H53.8721C53.316 51 52.785 50.7684 52.4066 50.3609L43.1208 40.3609C41.9325 39.0812 42.8401 37 44.5864 37H51C52.1046 37 53 36.1046 53 35Z" fill="#C778DD"/>
</svg>
